<svg version="1.1" id="Layer_1" xmlns="http://www.w3.org/2000/svg" xmlns:xlink="http://www.w3.org/1999/xlink" x="0px" y="0px"
	 width="100%" viewBox="0 0 792 578" enable-background="new 0 0 792 578" xml:space="preserve">
<path fill="#FDFFFF" opacity="1.000000" stroke="none" 
	d="
M477.000000,579.000000 
	C318.000000,579.000000 159.500000,579.000000 1.000000,579.000000 
	C1.000000,386.333344 1.000000,193.666672 1.000000,1.000000 
	C265.000000,1.000000 529.000000,1.000000 793.000000,1.000000 
	C793.000000,193.666672 793.000000,386.333344 793.000000,579.000000 
	C687.833313,579.000000 582.666687,579.000000 477.000000,579.000000 
M413.958038,63.583076 
	C413.951782,214.412704 413.920624,365.242371 414.059662,516.071838 
	C414.063812,520.579529 415.183167,525.368652 416.948334,529.532227 
	C420.406830,537.690002 426.700287,542.986389 435.787628,544.046692 
	C445.713196,545.204773 453.190430,541.084595 458.729614,532.907776 
	C463.075958,526.491699 463.746796,519.257446 463.748016,511.884949 
	C463.772491,364.555054 463.771210,217.225174 463.733673,69.895287 
	C463.732544,65.411629 463.637970,60.875484 462.976471,56.455177 
	C461.491852,46.534714 456.304932,38.914219 446.855835,35.237843 
	C438.299225,31.908722 430.022766,33.456993 423.144165,39.757488 
	C416.506378,45.837410 413.623566,53.629669 413.958038,63.583076 
M369.924377,35.240486 
	C355.031830,30.669039 341.762512,37.785480 337.894989,52.872826 
	C336.674561,57.633736 336.314301,62.728992 336.311584,67.671646 
	C336.229706,215.789871 336.236877,363.908142 336.272888,512.026428 
	C336.273743,515.508545 336.432648,519.055115 337.092499,522.460205 
	C338.917480,531.877808 343.893982,539.220703 353.036133,542.715210 
	C361.625763,545.998474 369.862122,544.592529 376.745270,538.260986 
	C382.904236,532.595581 386.044098,525.413757 386.044006,516.959045 
	C386.042267,365.008667 386.063202,213.058304 385.994965,61.107967 
	C385.989838,49.708176 380.940063,40.974838 369.924377,35.240486 
M109.179878,44.810329 
	C105.042953,51.032745 104.018112,58.011032 104.019112,65.301933 
	C104.039642,214.580505 104.028313,363.859070 104.078308,513.137634 
	C104.079468,516.607361 104.434570,520.132446 105.108101,523.536011 
	C107.122665,533.716492 115.743317,542.543701 124.736702,543.964355 
	C135.421860,545.652222 145.465363,540.938660 150.271973,530.652283 
	C152.581848,525.708984 153.813171,519.790222 153.820068,514.311035 
	C154.008636,364.366272 153.975800,214.421204 153.979538,64.476196 
	C153.979584,63.143372 154.018478,61.808804 153.965378,60.477997 
	C153.505234,48.941055 146.382263,38.365841 136.849716,35.038006 
	C126.619492,31.466612 117.706047,34.465157 109.179878,44.810329 
M181.816727,253.499985 
	C181.821243,339.815186 181.809769,426.130402 181.877762,512.445557 
	C181.881134,516.732056 181.975052,521.177368 183.061981,525.274109 
	C186.256241,537.313782 195.600983,544.293152 207.449448,544.157959 
	C217.801575,544.039856 227.205292,536.277954 229.954193,524.792419 
	C231.058365,520.179016 231.104004,515.237915 231.105774,510.445740 
	C231.160767,362.643372 231.151047,214.840988 231.145691,67.038597 
	C231.145584,64.039825 231.229156,61.030434 231.018219,58.044044 
	C229.823044,41.124210 213.669571,29.676535 198.633820,35.032810 
	C188.600769,38.606941 181.857635,49.123310 181.850662,61.539963 
	C181.814957,125.193283 181.823502,188.846634 181.816727,253.499985 
M618.170776,377.436951 
	C618.172913,326.303314 618.177246,275.169708 618.175415,224.036087 
	C618.175110,214.708801 618.570923,205.356766 618.024780,196.060760 
	C617.406311,185.534821 612.463501,177.251526 602.539673,172.817749 
	C593.784119,168.905975 585.460815,170.532349 578.335266,176.656403 
	C571.823730,182.252609 568.853027,189.684784 568.857178,198.349701 
	C568.886292,258.644135 568.864929,318.938568 568.867310,379.233032 
	C568.867371,380.731140 568.799133,382.253021 569.025146,383.723511 
	C570.479797,393.186584 575.016052,400.695679 583.788208,404.915100 
	C591.780884,408.759674 599.790344,407.984497 606.920105,402.724976 
	C615.000793,396.764008 618.544800,388.426208 618.170776,377.436951 
M27.076935,322.977448 
	C27.693750,325.218231 28.137308,327.524628 28.956589,329.688782 
	C33.078915,340.578003 41.672943,346.383484 53.077637,346.116211 
	C62.638279,345.892181 71.299606,339.191010 74.484581,328.799377 
	C75.825630,324.423920 76.483849,319.686493 76.550354,315.100525 
	C76.789177,298.631287 76.681877,282.156342 76.612793,265.683899 
	C76.596779,261.867645 76.388565,258.033569 75.968056,254.241058 
	C74.617592,242.061264 63.890102,231.950058 52.388546,231.855682 
	C38.331619,231.740326 27.191418,242.745621 27.015011,257.685272 
	C26.761612,279.145233 26.990000,300.610901 27.076935,322.977448 
M541.085938,184.500000 
	C541.085693,158.508804 541.307495,132.514206 540.909729,106.529099 
	C540.823730,100.907150 539.449768,94.864876 537.009705,89.818527 
	C533.000183,81.526321 525.918579,76.804680 516.189209,76.820335 
	C506.524719,76.835892 499.322449,81.291946 495.316132,89.680000 
	C492.889099,94.761543 491.208557,100.761658 491.198242,106.352798 
	C490.973724,227.976379 491.021851,349.600494 491.084625,471.224487 
	C491.086426,474.689087 491.435852,478.250519 492.279907,481.601410 
	C496.720581,499.230682 515.802917,507.019196 529.749878,496.799438 
	C538.216675,490.595245 541.112305,481.626129 541.108521,471.400299 
	C541.072937,376.100189 541.086548,280.800110 541.085938,184.500000 
M269.832336,341.735382 
	C280.609924,348.768799 292.958252,347.706512 301.150055,338.827698 
	C306.864044,332.634460 308.969910,325.020142 308.980774,316.751221 
	C309.005096,298.251770 309.035156,279.752106 308.951111,261.252991 
	C308.937561,258.275848 308.579865,255.253891 307.983154,252.333984 
	C305.739990,241.357559 296.978302,232.954941 286.816376,231.811630 
	C271.737122,230.115067 259.101929,242.230637 258.964966,258.876038 
	C258.801819,278.707458 258.908081,298.541290 258.935303,318.374023 
	C258.947906,327.539459 262.297241,335.238037 269.832336,341.735382 
M645.895752,290.500000 
	C645.896484,299.156006 645.786804,307.814087 645.952148,316.466949 
	C646.018311,319.928558 646.333923,323.464905 647.146240,326.819427 
	C651.393799,344.359772 671.590332,352.246063 685.056152,341.644958 
	C692.976501,335.409607 695.938110,326.772186 695.983643,317.021851 
	C696.068420,298.877991 696.055176,280.733124 695.955688,262.589355 
	C695.936707,259.122559 695.635132,255.597641 694.947571,252.204147 
	C691.094543,233.185684 669.093323,225.111847 655.254944,237.677322 
	C649.037903,243.322479 646.086365,250.684509 645.960266,259.038239 
	C645.806946,269.190155 645.905884,279.345917 645.895752,290.500000 
M725.848328,237.310547 
	C719.433960,242.913116 716.260864,250.237228 716.145264,258.489441 
	C715.858154,278.981445 715.720825,299.488617 716.211853,319.973236 
	C716.482056,331.244781 721.820007,340.328430 732.612000,344.757935 
	C748.181274,351.148285 765.362976,339.031158 765.872620,320.876556 
	C766.466187,299.730194 766.376221,278.546204 765.874146,257.395386 
	C765.626221,246.949158 760.611938,238.251999 750.822571,233.753098 
	C742.390076,229.877823 733.923218,230.865250 725.848328,237.310547 
z"/>
<path fill="#1D8ED3" opacity="1.000000" stroke="none" 
	d="
M413.957764,63.098648 
	C413.623566,53.629669 416.506378,45.837410 423.144165,39.757488 
	C430.022766,33.456993 438.299225,31.908722 446.855835,35.237843 
	C456.304932,38.914219 461.491852,46.534714 462.976471,56.455177 
	C463.637970,60.875484 463.732544,65.411629 463.733673,69.895287 
	C463.771210,217.225174 463.772491,364.555054 463.748016,511.884949 
	C463.746796,519.257446 463.075958,526.491699 458.729614,532.907776 
	C453.190430,541.084595 445.713196,545.204773 435.787628,544.046692 
	C426.700287,542.986389 420.406830,537.690002 416.948334,529.532227 
	C415.183167,525.368652 414.063812,520.579529 414.059662,516.071838 
	C413.920624,365.242371 413.951782,214.412704 413.957764,63.098648 
z"/>
<path fill="#1E8ED3" opacity="1.000000" stroke="none" 
	d="
M370.271667,35.424175 
	C380.940063,40.974838 385.989838,49.708176 385.994965,61.107967 
	C386.063202,213.058304 386.042267,365.008667 386.044006,516.959045 
	C386.044098,525.413757 382.904236,532.595581 376.745270,538.260986 
	C369.862122,544.592529 361.625763,545.998474 353.036133,542.715210 
	C343.893982,539.220703 338.917480,531.877808 337.092499,522.460205 
	C336.432648,519.055115 336.273743,515.508545 336.272888,512.026428 
	C336.236877,363.908142 336.229706,215.789871 336.311584,67.671646 
	C336.314301,62.728992 336.674561,57.633736 337.894989,52.872826 
	C341.762512,37.785480 355.031830,30.669039 370.271667,35.424175 
z"/>
<path fill="#1D8DD3" opacity="1.000000" stroke="none" 
	d="
M109.386215,44.508919 
	C117.706047,34.465157 126.619492,31.466612 136.849716,35.038006 
	C146.382263,38.365841 153.505234,48.941055 153.965378,60.477997 
	C154.018478,61.808804 153.979584,63.143372 153.979538,64.476196 
	C153.975800,214.421204 154.008636,364.366272 153.820068,514.311035 
	C153.813171,519.790222 152.581848,525.708984 150.271973,530.652283 
	C145.465363,540.938660 135.421860,545.652222 124.736702,543.964355 
	C115.743317,542.543701 107.122665,533.716492 105.108101,523.536011 
	C104.434570,520.132446 104.079468,516.607361 104.078308,513.137634 
	C104.028313,363.859070 104.039642,214.580505 104.019112,65.301933 
	C104.018112,58.011032 105.042953,51.032745 109.386215,44.508919 
z"/>
<path fill="#1C8DD3" opacity="1.000000" stroke="none" 
	d="
M181.816650,252.999969 
	C181.823502,188.846634 181.814957,125.193283 181.850662,61.539963 
	C181.857635,49.123310 188.600769,38.606941 198.633820,35.032810 
	C213.669571,29.676535 229.823044,41.124210 231.018219,58.044044 
	C231.229156,61.030434 231.145584,64.039825 231.145691,67.038597 
	C231.151047,214.840988 231.160767,362.643372 231.105774,510.445740 
	C231.104004,515.237915 231.058365,520.179016 229.954193,524.792419 
	C227.205292,536.277954 217.801575,544.039856 207.449448,544.157959 
	C195.600983,544.293152 186.256241,537.313782 183.061981,525.274109 
	C181.975052,521.177368 181.881134,516.732056 181.877762,512.445557 
	C181.809769,426.130402 181.821243,339.815186 181.816650,252.999969 
z"/>
<path fill="#1C8DD3" opacity="1.000000" stroke="none" 
	d="
M618.167847,377.924225 
	C618.544800,388.426208 615.000793,396.764008 606.920105,402.724976 
	C599.790344,407.984497 591.780884,408.759674 583.788208,404.915100 
	C575.016052,400.695679 570.479797,393.186584 569.025146,383.723511 
	C568.799133,382.253021 568.867371,380.731140 568.867310,379.233032 
	C568.864929,318.938568 568.886292,258.644135 568.857178,198.349701 
	C568.853027,189.684784 571.823730,182.252609 578.335266,176.656403 
	C585.460815,170.532349 593.784119,168.905975 602.539673,172.817749 
	C612.463501,177.251526 617.406311,185.534821 618.024780,196.060760 
	C618.570923,205.356766 618.175110,214.708801 618.175415,224.036087 
	C618.177246,275.169708 618.172913,326.303314 618.167847,377.924225 
z"/>
<path fill="#1E8ED3" opacity="1.000000" stroke="none" 
	d="
M27.044830,322.525787 
	C26.990000,300.610901 26.761612,279.145233 27.015011,257.685272 
	C27.191418,242.745621 38.331619,231.740326 52.388546,231.855682 
	C63.890102,231.950058 74.617592,242.061264 75.968056,254.241058 
	C76.388565,258.033569 76.596779,261.867645 76.612793,265.683899 
	C76.681877,282.156342 76.789177,298.631287 76.550354,315.100525 
	C76.483849,319.686493 75.825630,324.423920 74.484581,328.799377 
	C71.299606,339.191010 62.638279,345.892181 53.077637,346.116211 
	C41.672943,346.383484 33.078915,340.578003 28.956589,329.688782 
	C28.137308,327.524628 27.693750,325.218231 27.044830,322.525787 
z"/>
<path fill="#3E8CBD" opacity="1.000000" stroke="none" 
	d="
M541.085938,185.000000 
	C541.086548,280.800110 541.072937,376.100189 541.108521,471.400299 
	C541.112305,481.626129 538.216675,490.595245 529.749878,496.799438 
	C515.802917,507.019196 496.720581,499.230682 492.279907,481.601410 
	C491.435852,478.250519 491.086426,474.689087 491.084625,471.224487 
	C491.021851,349.600494 490.973724,227.976379 491.198242,106.352798 
	C491.208557,100.761658 492.889099,94.761543 495.316132,89.680000 
	C499.322449,81.291946 506.524719,76.835892 516.189209,76.820335 
	C525.918579,76.804680 533.000183,81.526321 537.009705,89.818527 
	C539.449768,94.864876 540.823730,100.907150 540.909729,106.529099 
	C541.307495,132.514206 541.085693,158.508804 541.085938,185.000000 
M492.997559,300.500000 
	C492.998627,356.990662 492.900787,413.481812 493.159119,469.971283 
	C493.183960,475.409119 494.348022,481.395905 496.831299,486.165710 
	C504.676880,501.235260 520.100891,503.776428 532.217468,491.236511 
	C537.733765,485.527527 539.008667,478.190521 539.008972,470.559448 
	C539.014282,349.912354 539.051392,229.265198 538.889465,108.618301 
	C538.882324,103.298782 537.959656,97.592583 535.893860,92.733864 
	C528.658081,75.715652 509.425507,75.820793 500.830688,85.658127 
	C494.805969,92.553787 493.112610,100.253067 493.091400,108.531197 
	C492.928162,172.187134 492.999207,235.843658 492.997559,300.500000 
z"/>
<path fill="#408DBD" opacity="1.000000" stroke="none" 
	d="
M269.552734,341.507874 
	C262.297241,335.238037 258.947906,327.539459 258.935303,318.374023 
	C258.908081,298.541290 258.801819,278.707458 258.964966,258.876038 
	C259.101929,242.230637 271.737122,230.115067 286.816376,231.811630 
	C296.978302,232.954941 305.739990,241.357559 307.983154,252.333984 
	C308.579865,255.253891 308.937561,258.275848 308.951111,261.252991 
	C309.035156,279.752106 309.005096,298.251770 308.980774,316.751221 
	C308.969910,325.020142 306.864044,332.634460 301.150055,338.827698 
	C292.958252,347.706512 280.609924,348.768799 269.552734,341.507874 
M307.002777,272.504150 
	C307.002869,269.005737 307.019653,265.507263 306.999573,262.008972 
	C306.958466,254.847397 304.984283,248.345352 300.765625,242.464127 
	C295.437836,235.036667 284.731567,231.892029 276.864258,235.425674 
	C266.963043,239.872803 261.047363,248.282623 261.007385,259.587402 
	C260.938416,279.078278 261.055450,298.570007 260.930542,318.060333 
	C260.890381,324.324188 262.766144,329.792419 266.416229,334.760254 
	C275.523590,347.155609 290.964935,347.071472 300.634644,335.337982 
	C305.507141,329.425629 306.707428,322.863831 306.888123,315.980225 
	C307.259552,301.829773 307.001434,287.662750 307.002777,272.504150 
z"/>
<path fill="#3F8EBA" opacity="1.000000" stroke="none" 
	d="
M645.895752,290.000000 
	C645.905884,279.345917 645.806946,269.190155 645.960266,259.038239 
	C646.086365,250.684509 649.037903,243.322479 655.254944,237.677322 
	C669.093323,225.111847 691.094543,233.185684 694.947571,252.204147 
	C695.635132,255.597641 695.936707,259.122559 695.955688,262.589355 
	C696.055176,280.733124 696.068420,298.877991 695.983643,317.021851 
	C695.938110,326.772186 692.976501,335.409607 685.056152,341.644958 
	C671.590332,352.246063 651.393799,344.359772 647.146240,326.819427 
	C646.333923,323.464905 646.018311,319.928558 645.952148,316.466949 
	C645.786804,307.814087 645.896484,299.156006 645.895752,290.000000 
M647.987000,265.553345 
	C647.984924,282.375031 647.994629,299.196747 647.974915,316.018433 
	C647.967407,322.458374 649.285461,328.500519 652.949768,333.922760 
	C661.743408,346.935303 677.246887,347.794800 687.652039,335.983765 
	C692.290161,330.718842 694.075195,323.447937 694.034607,316.041992 
	C693.934998,297.888458 694.426819,279.718445 693.763550,261.588623 
	C693.542480,255.544266 691.702515,248.885391 688.557373,243.763290 
	C682.197327,233.405731 669.639343,230.703552 659.599792,237.569901 
	C649.896240,244.206436 647.892090,253.871201 647.987000,265.553345 
z"/>
<path fill="#3F8EBA" opacity="1.000000" stroke="none" 
	d="
M726.138733,237.096191 
	C733.923218,230.865250 742.390076,229.877823 750.822571,233.753098 
	C760.611938,238.251999 765.626221,246.949158 765.874146,257.395386 
	C766.376221,278.546204 766.466187,299.730194 765.872620,320.876556 
	C765.362976,339.031158 748.181274,351.148285 732.612000,344.757935 
	C721.820007,340.328430 716.482056,331.244781 716.211853,319.973236 
	C715.720825,299.488617 715.858154,278.981445 716.145264,258.489441 
	C716.260864,250.237228 719.433960,242.913116 726.138733,237.096191 
M762.275696,327.531525 
	C762.855347,323.454041 763.893616,319.381287 763.935608,315.298248 
	C764.120605,297.327118 764.002686,279.353027 764.026672,261.380035 
	C764.038025,252.838684 760.766296,245.828720 755.142639,239.414871 
	C750.364380,233.965256 737.595520,232.091064 730.743164,236.703506 
	C722.108887,242.515427 718.247375,250.836960 718.075745,260.771118 
	C717.768250,278.572388 717.852051,296.384644 718.085632,314.188202 
	C718.147888,318.932281 718.505371,323.995911 720.221680,328.319702 
	C722.857849,334.961273 727.039551,340.710083 734.547424,343.131989 
	C746.195984,346.889557 757.638794,340.105896 762.275696,327.531525 
z"/>
<path fill="#1A8DD6" opacity="1.000000" stroke="none" 
	d="
M492.997559,300.000000 
	C492.999207,235.843658 492.928162,172.187134 493.091400,108.531197 
	C493.112610,100.253067 494.805969,92.553787 500.830688,85.658127 
	C509.425507,75.820793 528.658081,75.715652 535.893860,92.733864 
	C537.959656,97.592583 538.882324,103.298782 538.889465,108.618301 
	C539.051392,229.265198 539.014282,349.912354 539.008972,470.559448 
	C539.008667,478.190521 537.733765,485.527527 532.217468,491.236511 
	C520.100891,503.776428 504.676880,501.235260 496.831299,486.165710 
	C494.348022,481.395905 493.183960,475.409119 493.159119,469.971283 
	C492.900787,413.481812 492.998627,356.990662 492.997559,300.000000 
z"/>
<path fill="#1A8DD6" opacity="1.000000" stroke="none" 
	d="
M307.002625,273.003357 
	C307.001434,287.662750 307.259552,301.829773 306.888123,315.980225 
	C306.707428,322.863831 305.507141,329.425629 300.634644,335.337982 
	C290.964935,347.071472 275.523590,347.155609 266.416229,334.760254 
	C262.766144,329.792419 260.890381,324.324188 260.930542,318.060333 
	C261.055450,298.570007 260.938416,279.078278 261.007385,259.587402 
	C261.047363,248.282623 266.963043,239.872803 276.864258,235.425674 
	C284.731567,231.892029 295.437836,235.036667 300.765625,242.464127 
	C304.984283,248.345352 306.958466,254.847397 306.999573,262.008972 
	C307.019653,265.507263 307.002869,269.005737 307.002625,273.003357 
z"/>
<path fill="#1A8DD6" opacity="1.000000" stroke="none" 
	d="
M647.987427,265.063995 
	C647.892090,253.871201 649.896240,244.206436 659.599792,237.569901 
	C669.639343,230.703552 682.197327,233.405731 688.557373,243.763290 
	C691.702515,248.885391 693.542480,255.544266 693.763550,261.588623 
	C694.426819,279.718445 693.934998,297.888458 694.034607,316.041992 
	C694.075195,323.447937 692.290161,330.718842 687.652039,335.983765 
	C677.246887,347.794800 661.743408,346.935303 652.949768,333.922760 
	C649.285461,328.500519 647.967407,322.458374 647.974915,316.018433 
	C647.994629,299.196747 647.984924,282.375031 647.987427,265.063995 
z"/>
<path fill="#1A8DD5" opacity="1.000000" stroke="none" 
	d="
M762.167358,327.918884 
	C757.638794,340.105896 746.195984,346.889557 734.547424,343.131989 
	C727.039551,340.710083 722.857849,334.961273 720.221680,328.319702 
	C718.505371,323.995911 718.147888,318.932281 718.085632,314.188202 
	C717.852051,296.384644 717.768250,278.572388 718.075745,260.771118 
	C718.247375,250.836960 722.108887,242.515427 730.743164,236.703506 
	C737.595520,232.091064 750.364380,233.965256 755.142639,239.414871 
	C760.766296,245.828720 764.038025,252.838684 764.026672,261.380035 
	C764.002686,279.353027 764.120605,297.327118 763.935608,315.298248 
	C763.893616,319.381287 762.855347,323.454041 762.167358,327.918884 
z"/>
</svg>